<svg width="96" height="107" viewBox="0 0 96 107" fill="none" xmlns="http://www.w3.org/2000/svg">
<path d="M75.2372 82.8052L73.4636 82.3064V85.7981L75.2372 86.5463L90.9461 77.0689L87.6523 75.5724L75.2372 82.8052Z" fill="#E159FF"/>
<path d="M92.7197 55.1211L87.6523 58.3634V75.5724L90.9461 77.0689L75.2372 86.5463L73.4636 85.7981V89.2898L75.9973 90.7862L95 78.8147V56.3682L92.7197 55.1211Z" fill="#FE51FF"/>
<path d="M75.9973 40.1568L92.7197 30.6793V49.3848L75.9973 59.1116V40.1568Z" fill="#F952FF"/>
<path d="M73.717 18.209L57.248 28.1853L73.717 37.6627L90.4394 28.1853L73.717 18.209Z" fill="#DD5CFF"/>
<path d="M31.4043 13.9691L48.1267 3.99287L66.1159 13.9691L48.1267 24.1948L31.4043 13.9691Z" fill="#B367FF"/>
<path d="M22.0297 18.209L5.56065 28.1853L21.5229 37.6627L39.5121 28.1853L22.0297 18.209Z" fill="#7779FF"/>
<path d="M9.10782 58.3634L3.02695 55.1211L1 56.3682V78.8147L21.0162 90.7862L22.7898 89.2898V85.7981L21.0162 87.7933L5.30728 78.3159L9.10782 75.5724V58.3634Z" fill="#6F7CFF"/>
<path fill-rule="evenodd" clip-rule="evenodd" d="M26.0836 74.3254V92.5321L48.1267 106L70.6766 93.2803V74.3254L65.8625 71.0831L48.1267 80.3112L30.3908 71.0831L26.0836 74.3254ZM49.9003 102.01V82.8052L65.8625 73.8266L68.1429 75.5724V91.7838L49.9003 102.01Z" fill="#9E6EFF"/>
<path d="M49.9003 82.8052V102.01L68.1429 91.7838V75.5724L65.8625 73.8266L49.9003 82.8052Z" fill="#CF5FFF"/>
<path d="M49.9003 55.62V74.3254L68.1429 63.6009L67.8895 44.8955L49.9003 55.62Z" fill="#C562FF"/>
<path d="M48.1267 31.9264L30.8976 41.6532L48.1267 51.6295L65.8625 41.6532L48.1267 31.9264Z" fill="#B766FF"/>
<path fill-rule="evenodd" clip-rule="evenodd" d="M48.1267 28.6841L26.0836 41.6532V62.3539L21.5229 65.3468L12.9084 60.6081L11.1348 61.3563V74.3254L21.0162 80.3112L22.7898 79.5629V72.5796L30.3908 68.0903L48.1267 78.0665L65.8625 68.0903L73.4636 72.5796V79.5629L75.2372 80.3112L85.1186 74.3254V61.3563L83.5984 60.6081L75.2372 65.3468L70.6766 62.3539V41.6532L48.1267 28.6841ZM30.8976 41.6532L48.1267 31.9264L65.8625 41.6532L48.1267 51.6295L30.8976 41.6532ZM49.9003 74.3254V55.62L67.8895 44.8955L68.1429 63.6009L49.9003 74.3254ZM83.0916 73.0784V63.3515L75.2372 67.5914L70.6766 65.0974L68.1429 66.8432L75.9973 71.3325V77.3183L83.0916 73.0784Z" fill="#8076FF"/>
<path fill-rule="evenodd" clip-rule="evenodd" d="M42.5526 26.6888V29.1829L23.2965 40.1568L23.0431 60.8575L21.5229 62.3539L1 50.8812V27.4371L22.0297 15.4656L42.5526 26.6888ZM5.56065 28.1853L22.0297 18.209L39.5121 28.1853L21.5229 37.6627L5.56065 28.1853Z" fill="#727AFF"/>
<path fill-rule="evenodd" clip-rule="evenodd" d="M48.1267 1L27.3504 12.9715V14.9667L48.1267 26.6888L69.4097 14.9667V12.9715L48.1267 1ZM48.1267 3.99287L31.4043 13.9691L48.1267 24.1948L66.1159 13.9691L48.1267 3.99287Z" fill="#9670FF"/>
<path d="M83.0916 63.3515V73.0784L75.9973 77.3183V71.3325L68.1429 66.8432L70.6766 65.0974L75.2372 67.5914L83.0916 63.3515Z" fill="#ED55FF"/>
<path d="M21.0162 82.8052L9.10782 75.5724L5.30728 78.3159L21.0162 87.7933L22.7898 85.7981V82.3064L21.0162 82.8052Z" fill="#8874FF"/>
<path fill-rule="evenodd" clip-rule="evenodd" d="M53.9542 26.6888L73.717 15.4656L95 27.4371V50.8812L75.2372 62.3539L73.2102 60.8575L73.4636 40.1568L53.9542 29.1829V26.6888ZM57.248 28.1853L73.717 18.209L90.4394 28.1853L73.717 37.6627L57.248 28.1853ZM92.7197 30.6793L75.9973 40.1568V59.1116L92.7197 49.3848V30.6793Z" fill="#FD51FF"/>
<path d="M87.6523 75.5724L75.2372 82.8052L73.4636 82.3064V85.7981M87.6523 75.5724V58.3634L92.7197 55.1211L95 56.3682V78.8147L75.9973 90.7862L73.4636 89.2898V85.7981M87.6523 75.5724L90.9461 77.0689L75.2372 86.5463L73.4636 85.7981M9.10782 75.5724V58.3634L3.02695 55.1211L1 56.3682V78.8147L21.0162 90.7862L22.7898 89.2898V85.7981M9.10782 75.5724L21.0162 82.8052L22.7898 82.3064V85.7981M9.10782 75.5724L5.30728 78.3159L21.0162 87.7933L22.7898 85.7981M48.1267 1L27.3504 12.9715V14.9667L48.1267 26.6888L69.4097 14.9667V12.9715L48.1267 1ZM48.1267 28.6841L26.0836 41.6532V62.3539L21.5229 65.3468L12.9084 60.6081L11.1348 61.3563V74.3254L21.0162 80.3112L22.7898 79.5629V72.5796L30.3908 68.0903L48.1267 78.0665L65.8625 68.0903L73.4636 72.5796V79.5629L75.2372 80.3112L85.1186 74.3254V61.3563L83.5984 60.6081L75.2372 65.3468L70.6766 62.3539V41.6532L48.1267 28.6841ZM53.9542 26.6888L73.717 15.4656L95 27.4371V50.8812L75.2372 62.3539L73.2102 60.8575L73.4636 40.1568L53.9542 29.1829V26.6888ZM42.5526 26.6888V29.1829L23.2965 40.1568L23.0431 60.8575L21.5229 62.3539L1 50.8812V27.4371L22.0297 15.4656L42.5526 26.6888ZM26.0836 74.3254V92.5321L48.1267 106L70.6766 93.2803V74.3254L65.8625 71.0831L48.1267 80.3112L30.3908 71.0831L26.0836 74.3254ZM31.4043 13.9691L48.1267 3.99287L66.1159 13.9691L48.1267 24.1948L31.4043 13.9691ZM48.1267 31.9264L30.8976 41.6532L48.1267 51.6295L65.8625 41.6532L48.1267 31.9264ZM73.717 18.209L57.248 28.1853L73.717 37.6627L90.4394 28.1853L73.717 18.209ZM22.0297 18.209L5.56065 28.1853L21.5229 37.6627L39.5121 28.1853L22.0297 18.209ZM49.9003 55.62V74.3254L68.1429 63.6009L67.8895 44.8955L49.9003 55.62ZM75.9973 40.1568L92.7197 30.6793V49.3848L75.9973 59.1116V40.1568ZM49.9003 82.8052V102.01L68.1429 91.7838V75.5724L65.8625 73.8266L49.9003 82.8052ZM83.0916 63.3515V73.0784L75.9973 77.3183V71.3325L68.1429 66.8432L70.6766 65.0974L75.2372 67.5914L83.0916 63.3515Z" stroke="black" stroke-width="0.5"/>
</svg>
