<svg width="58" height="65" viewBox="0 0 58 65" fill="none" xmlns="http://www.w3.org/2000/svg">
<path d="M45.2264 50.0831L44.1698 49.7838V51.8789L45.2264 52.3278L54.5849 46.6413L52.6226 45.7435L45.2264 50.0831Z" fill="#E159FF"/>
<path d="M55.6415 33.4727L52.6226 35.4181V45.7435L54.5849 46.6413L45.2264 52.3278L44.1698 51.8789V53.9739L45.6792 54.8717L57 47.6888V34.2209L55.6415 33.4727Z" fill="#FE51FF"/>
<path d="M45.6792 24.4941L55.6415 18.8076V30.0309L45.6792 35.867V24.4941Z" fill="#F952FF"/>
<path d="M44.3208 11.3254L34.5094 17.3112L44.3208 22.9976L54.283 17.3112L44.3208 11.3254Z" fill="#DD5CFF"/>
<path d="M19.1132 8.78147L29.0755 2.79572L39.7925 8.78147L29.0755 14.9169L19.1132 8.78147Z" fill="#B367FF"/>
<path d="M13.5283 11.3254L3.71698 17.3112L13.2264 22.9976L23.9434 17.3112L13.5283 11.3254Z" fill="#7779FF"/>
<path d="M5.83019 35.4181L2.20755 33.4727L1 34.2209V47.6888L12.9245 54.8717L13.9811 53.9739V51.8789L12.9245 53.076L3.56604 47.3895L5.83019 45.7435V35.4181Z" fill="#6F7CFF"/>
<path fill-rule="evenodd" clip-rule="evenodd" d="M15.9434 44.9953V55.9192L29.0755 64L42.5094 56.3682V44.9953L39.6415 43.0499L29.0755 48.5867L18.5094 43.0499L15.9434 44.9953ZM30.1321 61.6057V50.0831L39.6415 44.696L41 45.7435V55.4703L30.1321 61.6057Z" fill="#9E6EFF"/>
<path d="M30.1321 50.0831V61.6057L41 55.4703V45.7435L39.6415 44.696L30.1321 50.0831Z" fill="#CF5FFF"/>
<path d="M30.1321 33.772V44.9953L41 38.5606L40.8491 27.3373L30.1321 33.772Z" fill="#C562FF"/>
<path d="M29.0755 19.5558L18.8113 25.3919L29.0755 31.3777L39.6415 25.3919L29.0755 19.5558Z" fill="#B766FF"/>
<path fill-rule="evenodd" clip-rule="evenodd" d="M29.0755 17.6105L15.9434 25.3919V37.8124L13.2264 39.6081L8.09434 36.7648L7.03774 37.2138V44.9953L12.9245 48.5867L13.9811 48.1378V43.9477L18.5094 41.2542L29.0755 47.2399L39.6415 41.2542L44.1698 43.9477V48.1378L45.2264 48.5867L51.1132 44.9953V37.2138L50.2075 36.7648L45.2264 39.6081L42.5094 37.8124V25.3919L29.0755 17.6105ZM18.8113 25.3919L29.0755 19.5558L39.6415 25.3919L29.0755 31.3777L18.8113 25.3919ZM30.1321 44.9953V33.772L40.8491 27.3373L41 38.5606L30.1321 44.9953ZM49.9057 44.247V38.4109L45.2264 40.9549L42.5094 39.4584L41 40.5059L45.6792 43.1995V46.791L49.9057 44.247Z" fill="#8076FF"/>
<path fill-rule="evenodd" clip-rule="evenodd" d="M25.7547 16.4133V17.9097L14.283 24.4941L14.1321 36.9145L13.2264 37.8124L1 30.9287V16.8622L13.5283 9.67933L25.7547 16.4133ZM3.71698 17.3112L13.5283 11.3254L23.9434 17.3112L13.2264 22.9976L3.71698 17.3112Z" fill="#727AFF"/>
<path fill-rule="evenodd" clip-rule="evenodd" d="M29.0755 1L16.6981 8.1829V9.38005L29.0755 16.4133L41.7547 9.38005V8.1829L29.0755 1ZM29.0755 2.79572L19.1132 8.78147L29.0755 14.9169L39.7925 8.78147L29.0755 2.79572Z" fill="#9670FF"/>
<path d="M49.9057 38.4109V44.247L45.6792 46.791V43.1995L41 40.5059L42.5094 39.4584L45.2264 40.9549L49.9057 38.4109Z" fill="#ED55FF"/>
<path d="M12.9245 50.0831L5.83019 45.7435L3.56604 47.3895L12.9245 53.076L13.9811 51.8789V49.7838L12.9245 50.0831Z" fill="#8874FF"/>
<path fill-rule="evenodd" clip-rule="evenodd" d="M32.5472 16.4133L44.3208 9.67933L57 16.8622V30.9287L45.2264 37.8124L44.0189 36.9145L44.1698 24.4941L32.5472 17.9097V16.4133ZM34.5094 17.3112L44.3208 11.3254L54.283 17.3112L44.3208 22.9976L34.5094 17.3112ZM55.6415 18.8076L45.6792 24.4941V35.867L55.6415 30.0309V18.8076Z" fill="#FD51FF"/>
<path d="M52.6226 45.7435L45.2264 50.0831L44.1698 49.7838V51.8789M52.6226 45.7435V35.4181L55.6415 33.4727L57 34.2209V47.6888L45.6792 54.8717L44.1698 53.9739V51.8789M52.6226 45.7435L54.5849 46.6413L45.2264 52.3278L44.1698 51.8789M5.83019 45.7435V35.4181L2.20755 33.4727L1 34.2209V47.6888L12.9245 54.8717L13.9811 53.9739V51.8789M5.83019 45.7435L12.9245 50.0831L13.9811 49.7838V51.8789M5.83019 45.7435L3.56604 47.3895L12.9245 53.076L13.9811 51.8789M29.0755 1L16.6981 8.1829V9.38005L29.0755 16.4133L41.7547 9.38005V8.1829L29.0755 1ZM29.0755 17.6105L15.9434 25.3919V37.8124L13.2264 39.6081L8.09434 36.7648L7.03774 37.2138V44.9953L12.9245 48.5867L13.9811 48.1378V43.9477L18.5094 41.2542L29.0755 47.2399L39.6415 41.2542L44.1698 43.9477V48.1378L45.2264 48.5867L51.1132 44.9953V37.2138L50.2075 36.7648L45.2264 39.6081L42.5094 37.8124V25.3919L29.0755 17.6105ZM32.5472 16.4133L44.3208 9.67933L57 16.8622V30.9287L45.2264 37.8124L44.0189 36.9145L44.1698 24.4941L32.5472 17.9097V16.4133ZM25.7547 16.4133V17.9097L14.283 24.4941L14.1321 36.9145L13.2264 37.8124L1 30.9287V16.8622L13.5283 9.67933L25.7547 16.4133ZM15.9434 44.9953V55.9192L29.0755 64L42.5094 56.3682V44.9953L39.6415 43.0499L29.0755 48.5867L18.5094 43.0499L15.9434 44.9953ZM19.1132 8.78147L29.0755 2.79572L39.7925 8.78147L29.0755 14.9169L19.1132 8.78147ZM29.0755 19.5558L18.8113 25.3919L29.0755 31.3777L39.6415 25.3919L29.0755 19.5558ZM44.3208 11.3254L34.5094 17.3112L44.3208 22.9976L54.283 17.3112L44.3208 11.3254ZM13.5283 11.3254L3.71698 17.3112L13.2264 22.9976L23.9434 17.3112L13.5283 11.3254ZM30.1321 33.772V44.9953L41 38.5606L40.8491 27.3373L30.1321 33.772ZM45.6792 24.4941L55.6415 18.8076V30.0309L45.6792 35.867V24.4941ZM30.1321 50.0831V61.6057L41 55.4703V45.7435L39.6415 44.696L30.1321 50.0831ZM49.9057 38.4109V44.247L45.6792 46.791V43.1995L41 40.5059L42.5094 39.4584L45.2264 40.9549L49.9057 38.4109Z" stroke="black" stroke-width="0.5"/>
</svg>
